<svg xmlns="http://www.w3.org/2000/svg" viewBox="0 0 1200 280" width="1200" height="280">
  <defs>
    <linearGradient id="bg" x1="0" y1="0" x2="1" y2="1">
      <stop offset="0%" stop-color="#0f172a"/>
      <stop offset="100%" stop-color="#1e1b4b"/>
    </linearGradient>
    <linearGradient id="accent" x1="0" y1="0" x2="1" y2="0">
      <stop offset="0%" stop-color="#6366f1"/>
      <stop offset="100%" stop-color="#818cf8"/>
    </linearGradient>
  </defs>

  <!-- Background -->
  <rect width="1200" height="280" fill="url(#bg)"/>

  <!-- Subtle grid -->
  <g opacity="0.06" stroke="#94a3b8" stroke-width="0.5">
    <line x1="0" y1="56" x2="1200" y2="56"/>
    <line x1="0" y1="112" x2="1200" y2="112"/>
    <line x1="0" y1="168" x2="1200" y2="168"/>
    <line x1="0" y1="224" x2="1200" y2="224"/>
    <line x1="200" y1="0" x2="200" y2="280"/>
    <line x1="400" y1="0" x2="400" y2="280"/>
    <line x1="600" y1="0" x2="600" y2="280"/>
    <line x1="800" y1="0" x2="800" y2="280"/>
    <line x1="1000" y1="0" x2="1000" y2="280"/>
  </g>

  <!-- Logo icon: git-tree/attribution graph -->
  <g transform="translate(548, 68)">
    <!-- Background pill -->
    <rect x="0" y="0" width="52" height="52" rx="14" fill="url(#accent)"/>
    <!-- Tree: top node -->
    <circle cx="26" cy="12" r="4" fill="white"/>
    <!-- Stem -->
    <line x1="26" y1="16" x2="26" y2="22" stroke="white" stroke-width="2.5" stroke-linecap="round"/>
    <!-- Branches -->
    <line x1="26" y1="22" x2="14" y2="28" stroke="white" stroke-width="2" stroke-linecap="round"/>
    <line x1="26" y1="22" x2="38" y2="28" stroke="white" stroke-width="2" stroke-linecap="round"/>
    <!-- Left child -->
    <circle cx="14" cy="32" r="3.5" fill="white"/>
    <!-- Right child -->
    <circle cx="38" cy="32" r="3.5" fill="white"/>
    <!-- Right child branch -->
    <line x1="38" y1="35.5" x2="38" y2="40" stroke="white" stroke-width="2" stroke-linecap="round"/>
    <circle cx="38" cy="43" r="3" fill="white" opacity="0.6"/>
  </g>

  <!-- Title -->
  <text x="600" y="160" text-anchor="middle" font-family="Inter, -apple-system, system-ui, sans-serif" font-size="52" font-weight="800" letter-spacing="-2" fill="#f8fafc">Lineage</text>

  <!-- Subtitle -->
  <text x="600" y="192" text-anchor="middle" font-family="Inter, -apple-system, system-ui, sans-serif" font-size="17" fill="#94a3b8" letter-spacing="0.2">Git blame for AI-generated code</text>

  <!-- Badge -->
  <g transform="translate(490, 214)">
    <rect width="220" height="28" rx="14" fill="#1e293b" stroke="#334155" stroke-width="1"/>
    <text x="110" y="18.5" text-anchor="middle" font-family="Inter, system-ui" font-size="11.5" font-weight="600" fill="#94a3b8" letter-spacing="0.3">Built for IBM Bob Dev Day Hackathon</text>
  </g>
</svg>
